<svg xmlns="http://www.w3.org/2000/svg" xmlns:xlink="http://www.w3.org/1999/xlink" width="200" zoomAndPan="magnify" viewBox="0 0 150 149.999998" height="200" preserveAspectRatio="xMidYMid meet" version="1.0"><path fill="#ff8a8a" d="M 20.390625 32.519531 C 24.335938 33.148438 30.109375 30.890625 34.363281 33.96875 C 39.195312 37.464844 36.300781 43.605469 36.886719 48.535156 C 38.515625 62.160156 44.226562 73.148438 55.972656 80.707031 C 68.238281 88.59375 79.976562 85.339844 91.5625 79.101562 C 100.28125 74.414062 105.351562 66.6875 108.328125 57.621094 C 110.675781 50.464844 115.230469 43.984375 114.980469 35.980469 C 114.898438 33.253906 117.292969 32.640625 119.464844 32.644531 C 128.195312 32.648438 136.933594 32.722656 145.667969 32.921875 C 148.441406 32.984375 149.628906 35.042969 149.804688 37.554688 C 150.238281 43.847656 150.132812 49.976562 147.589844 56.050781 C 143.839844 65.003906 141.539062 74.5 137.65625 83.445312 C 133.351562 93.355469 126.203125 100.59375 116.84375 105.304688 C 105.292969 111.117188 93.28125 116.980469 80.273438 117.5625 C 47.828125 119.003906 21.851562 109.378906 6.242188 78.789062 C 0.503906 67.535156 -1.085938 54.320312 0.6875 41.335938 C 1.707031 33.882812 3.605469 32.554688 11.28125 32.519531 C 13.945312 32.507812 16.613281 32.519531 20.390625 32.519531 Z M 139.734375 46.59375 C 140.890625 40.65625 138.359375 38.6875 132.859375 39.597656 C 131.746094 39.785156 130.578125 39.640625 129.4375 39.644531 C 119.914062 39.667969 120.195312 39.695312 119.089844 48.941406 C 116.914062 67.195312 108.058594 81.347656 91.28125 89.273438 C 67.320312 100.589844 46.417969 90.5 35.195312 70.871094 C 31.742188 64.828125 31.859375 57.636719 30.9375 50.863281 C 29.074219 37.183594 30.777344 37.96875 17.707031 39.46875 C 16.765625 39.578125 15.804688 39.535156 14.855469 39.578125 C 8.484375 39.859375 7.667969 40.785156 8.765625 47.277344 C 9.683594 52.722656 11.097656 58.089844 11.851562 63.554688 C 14.070312 79.597656 23.414062 91.0625 36.617188 98.769531 C 59.078125 111.882812 82.414062 112.097656 105.914062 100.558594 C 113.476562 96.84375 121.296875 93.808594 125.523438 85.804688 C 126.855469 83.285156 128.035156 80.671875 129.472656 78.214844 C 135.234375 68.371094 137.820312 57.515625 139.734375 46.59375 L 139.730469 46.59375 Z M 139.734375 46.59375 " fill-opacity="1" fill-rule="nonzero"/></svg>