<svg xmlns="http://www.w3.org/2000/svg" xmlns:xlink="http://www.w3.org/1999/xlink" width="200" zoomAndPan="magnify" viewBox="0 0 150 149.999998" height="200" preserveAspectRatio="xMidYMid meet" version="1.0"><path fill="#ef9c66" d="M 3.703125 78.082031 C 3.4375 44.332031 21.609375 22.773438 49.988281 7.972656 C 53.367188 6.210938 56.839844 4.636719 60.160156 2.773438 C 63.113281 1.121094 66.308594 -0.21875 69.546875 0.03125 C 73.816406 0.355469 80.035156 -0.839844 80.816406 5.109375 C 81.570312 10.851562 75.894531 11.695312 71.476562 13.128906 C 53.628906 18.929688 36.839844 26.648438 25.28125 42.292969 C 17.765625 52.464844 16.816406 64.351562 17.925781 76.527344 C 18.226562 79.8125 18.929688 83.082031 18.988281 86.371094 C 19.371094 107.496094 37.101562 128.609375 60.0625 131.695312 C 69.230469 132.933594 78.203125 136.214844 87.886719 133.472656 C 127.503906 122.246094 143.9375 83.628906 116.804688 48.898438 C 104.9375 33.714844 89.199219 38.816406 74.121094 40.054688 C 58.445312 41.339844 45.230469 62.046875 46.210938 75.898438 C 47.109375 88.59375 53.648438 95.996094 64.039062 101.136719 C 73.898438 106.015625 83.5 105.738281 92.699219 99.015625 C 102.664062 91.734375 103.175781 80.285156 93.65625 72.035156 C 89.042969 68.035156 82.238281 69.394531 78.175781 75.8125 C 75.4375 80.128906 72.503906 84.125 67.539062 80.332031 C 62.746094 76.683594 64.5625 71.445312 67.851562 67.464844 C 73.339844 60.824219 80.523438 56.253906 88.898438 54.511719 C 100.398438 52.113281 108.914062 59.277344 113.523438 74.214844 C 121.621094 100.457031 99.96875 123.820312 70.90625 119.628906 C 39.605469 115.109375 25.980469 91.210938 34.023438 62.003906 C 40.792969 37.40625 57.015625 25.449219 82.511719 23.308594 C 89.953125 22.683594 97.203125 23.046875 104.457031 23.871094 C 117.003906 25.292969 126.890625 30.828125 133.007812 42.648438 C 138.304688 52.871094 143.089844 63.414062 145.214844 74.542969 C 150.367188 101.519531 136.476562 120.304688 117.023438 136.707031 C 106.019531 145.984375 93.1875 149.675781 79.726562 149.96875 C 63.992188 150.3125 48 147.640625 34.621094 138.933594 C 12.195312 124.339844 3.515625 105.796875 3.707031 78.085938 L 3.707031 78.082031 Z M 3.703125 78.082031 " fill-opacity="1" fill-rule="nonzero"/></svg>