<svg xmlns="http://www.w3.org/2000/svg" xmlns:xlink="http://www.w3.org/1999/xlink" width="200" zoomAndPan="magnify" viewBox="0 0 150 149.999998" height="200" preserveAspectRatio="xMidYMid meet" version="1.0"><path fill="#55ad9b" d="M 149.996094 127.734375 C 149.859375 130.117188 149.039062 131.285156 147.449219 131.726562 C 144.570312 132.523438 142.121094 131.363281 140.582031 129.148438 C 135.066406 121.207031 128.972656 113.519531 124.554688 104.984375 C 110.734375 78.304688 88.878906 57.59375 72.066406 33.148438 C 67.015625 25.804688 63.789062 32.417969 61.8125 36.4375 C 48.429688 63.546875 28.242188 86.320312 13.609375 112.621094 C 11.109375 117.113281 7.042969 123.992188 2.566406 121.414062 C -3.433594 117.964844 2.664062 112.117188 5.101562 108.195312 C 19.207031 85.472656 33.746094 63.011719 48.09375 40.4375 C 51.667969 34.8125 55.066406 29.070312 58.582031 23.410156 C 62.582031 16.976562 66.730469 16.324219 73.070312 21.339844 C 81.71875 28.1875 88.3125 36.503906 94.179688 45.585938 C 111.472656 72.367188 128.960938 99.011719 147.851562 124.707031 C 148.695312 125.855469 149.503906 127.027344 150.003906 127.730469 Z M 149.996094 127.734375 " fill-opacity="1" fill-rule="nonzero"/><path fill="#55ad9b" d="M 30.351562 123.273438 C 27.160156 118.621094 29.628906 114.015625 31.140625 109.726562 C 37.394531 91.960938 49.496094 77.515625 59.054688 61.628906 C 62.816406 55.371094 67.351562 55.496094 72.136719 61.617188 C 84.769531 77.785156 95.21875 95.320312 105.414062 113.042969 C 106.515625 114.960938 107.316406 117.085938 108.039062 119.1875 C 108.875 121.628906 110.246094 124.792969 107.484375 126.300781 C 104.105469 128.140625 101.851562 124.949219 100.421875 122.523438 C 96.660156 116.121094 93.011719 109.613281 89.917969 102.871094 C 85.367188 92.953125 78.035156 84.902344 72.5 75.679688 C 68.609375 69.199219 66.289062 70.226562 62.746094 76.273438 C 54.320312 90.632812 48.304688 106.53125 36.308594 118.667969 C 34.582031 120.417969 33.984375 123.503906 30.351562 123.273438 Z M 30.351562 123.273438 " fill-opacity="1" fill-rule="nonzero"/><path fill="#55ad9b" d="M 54.148438 128.535156 C 54.101562 118.921875 57.671875 111.175781 61.195312 103.605469 C 63.207031 99.285156 67.6875 98.082031 71.371094 101.644531 C 77.210938 107.292969 82.730469 113.351562 85.5 121.3125 C 86.511719 124.214844 87.535156 127.3125 84.378906 129.304688 C 81.179688 131.328125 76.878906 130.882812 75.519531 127.6875 C 69.105469 112.652344 63.546875 122.027344 57.65625 127.859375 C 57.242188 128.269531 56.304688 128.148438 54.148438 128.535156 Z M 54.148438 128.535156 " fill-opacity="1" fill-rule="nonzero"/></svg>