<svg xmlns="http://www.w3.org/2000/svg" xmlns:xlink="http://www.w3.org/1999/xlink" width="100" zoomAndPan="magnify" viewBox="0 0 75 37.5" height="50" preserveAspectRatio="xMidYMid meet" version="1.0"><path fill="#004b25" d="M 14.269531 11.941406 L 9.046875 11.941406 L 9.046875 9.574219 L 22.226562 9.574219 L 22.226562 11.941406 L 17.03125 11.941406 L 17.03125 25.855469 L 14.269531 25.855469 Z M 14.269531 11.941406 " fill-opacity="1" fill-rule="nonzero"/><path fill="#004b25" d="M 25.703125 25.859375 L 23.195312 25.859375 L 23.195312 14.980469 L 22.503906 14.863281 L 22.503906 14.175781 L 25.632812 14.175781 L 25.632812 15.945312 C 26.34375 14.589844 27.449219 13.761719 28.804688 13.761719 C 29.242188 13.761719 29.773438 13.875 30.277344 14.058594 L 30.277344 16.289062 C 29.632812 16.015625 28.921875 15.921875 28.460938 15.921875 C 26.804688 15.921875 25.703125 17.394531 25.703125 19.464844 Z M 25.703125 25.859375 " fill-opacity="1" fill-rule="nonzero"/><path fill="#004b25" d="M 35.085938 14.171875 L 35.085938 25.855469 L 32.578125 25.855469 L 32.578125 14.976562 L 31.886719 14.863281 L 31.886719 14.171875 Z M 33.820312 9.25 C 34.714844 9.25 35.359375 9.871094 35.359375 10.746094 C 35.359375 11.621094 34.714844 12.285156 33.820312 12.285156 C 32.921875 12.285156 32.277344 11.644531 32.277344 10.746094 C 32.277344 9.847656 32.921875 9.25 33.820312 9.25 Z M 33.820312 9.25 " fill-opacity="1" fill-rule="nonzero"/><path fill="#004b25" d="M 41.15625 25.859375 L 38.695312 25.859375 L 38.695312 9.6875 L 38.003906 9.574219 L 38.003906 8.882812 L 41.203125 8.882812 L 41.203125 15.96875 C 42.191406 14.566406 43.707031 13.714844 45.503906 13.714844 C 48.882812 13.714844 51.320312 16.359375 51.320312 20.015625 C 51.320312 23.671875 48.859375 26.316406 45.503906 26.316406 C 43.664062 26.316406 42.121094 25.445312 41.15625 23.996094 Z M 48.816406 20.015625 C 48.816406 17.738281 47.203125 16.058594 44.972656 16.058594 C 42.742188 16.058594 41.109375 17.738281 41.109375 20.015625 C 41.109375 22.292969 42.742188 23.972656 44.972656 23.972656 C 47.203125 23.972656 48.816406 22.339844 48.816406 20.015625 Z M 48.816406 20.015625 " fill-opacity="1" fill-rule="nonzero"/><path fill="#004b25" d="M 62.339844 20.890625 L 62.339844 14.175781 L 64.820312 14.175781 L 64.820312 25.050781 L 65.511719 25.167969 L 65.511719 25.859375 L 62.339844 25.859375 L 62.339844 24.15625 C 61.554688 25.488281 60.085938 26.316406 58.542969 26.316406 C 55.691406 26.316406 53.851562 24.203125 53.851562 21.304688 L 53.851562 14.980469 L 53.160156 14.863281 L 53.160156 14.175781 L 56.359375 14.175781 L 56.359375 21.121094 C 56.359375 22.84375 57.371094 24.085938 59.140625 24.085938 C 60.914062 24.085938 62.339844 22.753906 62.339844 20.890625 Z M 62.339844 20.890625 " fill-opacity="1" fill-rule="nonzero"/></svg>